<svg xmlns="http://www.w3.org/2000/svg" width="946" height="1427.5" viewBox="0 0 946 1427.5">
    <defs>
        <style>.a{fill:#fff;}</style>
    </defs>
    <title>camera-viewport-border</title>
    <path class="a"
          d="M262.5,1427.5H12.5A12.5,12.5,0,0,1,0,1415V1165a12.5,12.5,0,0,1,25,0v237.5H262.5a12.5,12.5,0,0,1,0,25Z"/>
    <path class="a"
          d="M933.5,1427.5h-250a12.5,12.5,0,0,1,0-25H921V1165a12.5,12.5,0,0,1,25,0v250A12.5,12.5,0,0,1,933.5,1427.5Z"/>
    <path class="a"
          d="M933.5,876.7A12.5,12.5,0,0,1,921,864.2V563.3a12.5,12.5,0,0,1,25,0V864.2A12.5,12.5,0,0,1,933.5,876.7Z"/>
    <path class="a"
          d="M933.5,275A12.5,12.5,0,0,1,921,262.5V25H683.5a12.5,12.5,0,0,1,0-25h250A12.5,12.5,0,0,1,946,12.5v250A12.5,12.5,0,0,1,933.5,275Z"/>
    <path class="a"
          d="M12.5,275A12.5,12.5,0,0,1,0,262.5V12.5A12.5,12.5,0,0,1,12.5,0h250a12.5,12.5,0,0,1,0,25H25V262.5A12.5,12.5,0,0,1,12.5,275Z"/>
    <path class="a"
          d="M12.5,876.7A12.5,12.5,0,0,1,0,864.2V563.3a12.5,12.5,0,0,1,25,0V864.2A12.5,12.5,0,0,1,12.5,876.7Z"/>
</svg>